<svg width="25" height="25" viewBox="0 0 25 25" fill="none" xmlns="http://www.w3.org/2000/svg">
<path d="M21.3542 21.8724H6.77083C5.625 21.8724 4.6875 20.9349 4.6875 19.7891V9.3724C4.6875 8.22656 5.625 7.28906 6.77083 7.28906H21.3542C22.5 7.28906 23.4375 8.22656 23.4375 9.3724V19.7891C23.4375 20.9349 22.5 21.8724 21.3542 21.8724Z" fill="#E65100"/>
<path d="M18.2292 18.7474H3.64583C2.5 18.7474 1.5625 17.8099 1.5625 16.6641V6.2474C1.5625 5.10156 2.5 4.16406 3.64583 4.16406H18.2292C19.375 4.16406 20.3125 5.10156 20.3125 6.2474V16.6641C20.3125 17.8099 19.375 18.7474 18.2292 18.7474Z" fill="#F57C00"/>
<path d="M15.625 9.89844C16.4879 9.89844 17.1875 9.19888 17.1875 8.33594C17.1875 7.47299 16.4879 6.77344 15.625 6.77344C14.7621 6.77344 14.0625 7.47299 14.0625 8.33594C14.0625 9.19888 14.7621 9.89844 15.625 9.89844Z" fill="#FFF9C4"/>
<path d="M8.85156 9.32031L4.16406 16.1432H13.5391L8.85156 9.32031Z" fill="#942A09"/>
<path d="M14.5859 12.2422L11.4609 16.1484H17.7109L14.5859 12.2422Z" fill="#BF360C"/>
</svg>
